<?xml version="1.0" encoding="utf-8"?>
<!-- Generator: Adobe Illustrator 24.3.0, SVG Export Plug-In . SVG Version: 6.00 Build 0)  -->
<svg version="1.0" id="Layer_1" xmlns="http://www.w3.org/2000/svg" xmlns:xlink="http://www.w3.org/1999/xlink" x="0px" y="0px"
	 viewBox="0 0 33.764 5.875" style="enable-background:new 0 0 33.764 5.875;" xml:space="preserve">
<g>
	<path style="fill:#5060C9;" d="M0.044,4.44C0.015,4.411,0,4.375,0,4.333V0.221c0-0.046,0.014-0.084,0.041-0.114
		c0.027-0.029,0.064-0.044,0.111-0.044h0.512c0.08,0,0.143,0.04,0.189,0.12l1.219,2.261l1.219-2.261c0.046-0.08,0.11-0.12,0.19-0.12
		h0.505c0.046,0,0.084,0.015,0.113,0.044c0.03,0.03,0.044,0.068,0.044,0.114v4.113c0,0.046-0.015,0.083-0.044,0.11
		C4.07,4.471,4.032,4.485,3.986,4.485H3.443c-0.042,0-0.078-0.015-0.107-0.044C3.306,4.411,3.291,4.375,3.291,4.333V1.617
		L2.413,3.285C2.367,3.377,2.297,3.424,2.205,3.424H1.939c-0.088,0-0.16-0.046-0.215-0.139L0.847,1.617v2.717
		c0,0.042-0.014,0.078-0.041,0.107C0.778,4.47,0.741,4.485,0.695,4.485H0.152C0.109,4.485,0.074,4.47,0.044,4.44z"/>
	<path style="fill:#5060C9;" d="M5.354,4.144C5.078,3.875,4.932,3.491,4.915,2.994L4.908,2.836c0-0.526,0.138-0.941,0.414-1.244
		C5.598,1.289,5.98,1.137,6.469,1.137c0.501,0,0.887,0.152,1.159,0.455c0.271,0.303,0.408,0.708,0.408,1.213v0.132
		c0,0.042-0.016,0.078-0.045,0.107c-0.029,0.03-0.066,0.044-0.113,0.044H5.78v0.05C5.789,3.375,5.853,3.57,5.973,3.724
		s0.285,0.23,0.496,0.23c0.24,0,0.436-0.097,0.587-0.291c0.038-0.046,0.067-0.075,0.088-0.085c0.021-0.011,0.057-0.016,0.107-0.016
		h0.556c0.038,0,0.07,0.011,0.098,0.032s0.041,0.05,0.041,0.088c0,0.101-0.06,0.22-0.18,0.357c-0.12,0.137-0.292,0.256-0.515,0.357
		S6.77,4.548,6.475,4.548C6.003,4.548,5.629,4.413,5.354,4.144z M7.164,2.552V2.539c0-0.248-0.062-0.447-0.187-0.597
		C6.853,1.793,6.684,1.718,6.469,1.718S6.085,1.793,5.963,1.942S5.78,2.291,5.78,2.539v0.013H7.164z"/>
	<path style="fill:#5060C9;" d="M9.28,5.688C9.047,5.564,8.883,5.422,8.787,5.262S8.641,4.965,8.641,4.851
		c0-0.042,0.015-0.077,0.045-0.104C8.715,4.72,8.75,4.706,8.792,4.706h0.562c0.038,0,0.07,0.009,0.098,0.028s0.05,0.054,0.066,0.104
		c0.047,0.11,0.116,0.203,0.209,0.281s0.235,0.117,0.43,0.117c0.252,0,0.438-0.056,0.556-0.167c0.118-0.112,0.177-0.307,0.177-0.584
		v-0.43c-0.228,0.27-0.55,0.404-0.967,0.404c-0.438,0-0.768-0.132-0.988-0.398c-0.221-0.265-0.34-0.627-0.356-1.086l-0.007-0.17
		l0.007-0.171c0.017-0.45,0.137-0.812,0.359-1.086C9.162,1.274,9.49,1.137,9.923,1.137c0.224,0,0.419,0.042,0.588,0.126
		c0.168,0.084,0.308,0.198,0.417,0.341V1.358c0-0.046,0.016-0.084,0.047-0.114C11.007,1.215,11.043,1.2,11.086,1.2h0.518
		c0.042,0,0.078,0.015,0.107,0.044c0.029,0.03,0.044,0.067,0.044,0.114l0.007,3.045c0,0.467-0.131,0.83-0.392,1.086
		c-0.262,0.257-0.655,0.385-1.182,0.385C9.814,5.875,9.511,5.812,9.28,5.688z M10.695,3.562c0.117-0.151,0.183-0.337,0.195-0.556
		c0.004-0.034,0.007-0.101,0.007-0.202s-0.003-0.168-0.007-0.202c-0.013-0.219-0.078-0.404-0.195-0.556
		c-0.118-0.151-0.295-0.228-0.531-0.228c-0.455,0-0.694,0.278-0.72,0.834L9.437,2.805c0,0.657,0.242,0.985,0.727,0.985
		C10.4,3.79,10.577,3.714,10.695,3.562z"/>
	<path style="fill:#5060C9;" d="M12.959,4.418c-0.179-0.086-0.32-0.203-0.424-0.351c-0.103-0.147-0.154-0.31-0.154-0.486
		c0-0.286,0.116-0.518,0.348-0.695s0.55-0.297,0.954-0.36L14.548,2.4V2.268c0-0.181-0.047-0.318-0.14-0.411
		c-0.092-0.093-0.239-0.139-0.441-0.139c-0.14,0-0.251,0.025-0.335,0.076c-0.085,0.05-0.153,0.102-0.205,0.155
		c-0.053,0.053-0.088,0.087-0.104,0.104c-0.017,0.051-0.049,0.076-0.095,0.076h-0.493c-0.038,0-0.07-0.012-0.098-0.038
		s-0.041-0.059-0.041-0.101c0.004-0.105,0.056-0.224,0.154-0.357c0.1-0.133,0.252-0.249,0.458-0.348
		c0.207-0.099,0.462-0.148,0.765-0.148c0.497,0,0.859,0.112,1.087,0.335s0.341,0.516,0.341,0.878v1.984
		c0,0.042-0.014,0.078-0.041,0.107c-0.027,0.03-0.064,0.044-0.11,0.044h-0.524c-0.042,0-0.078-0.015-0.107-0.044
		c-0.029-0.029-0.044-0.065-0.044-0.107V4.087c-0.093,0.135-0.224,0.245-0.392,0.332c-0.169,0.086-0.38,0.129-0.632,0.129
		C13.335,4.548,13.138,4.505,12.959,4.418z M14.333,3.714c0.147-0.152,0.221-0.371,0.221-0.657V2.931l-0.632,0.101
		c-0.484,0.076-0.727,0.238-0.727,0.487c0,0.135,0.057,0.239,0.168,0.312s0.245,0.11,0.401,0.11
		C13.997,3.941,14.186,3.866,14.333,3.714z"/>
	<path d="M18.294,4.377c-0.27-0.114-0.474-0.263-0.613-0.448c-0.139-0.186-0.213-0.388-0.221-0.606c0-0.034,0.013-0.064,0.038-0.092
		s0.057-0.041,0.095-0.041h0.574c0.047,0,0.085,0.01,0.114,0.032c0.029,0.021,0.057,0.05,0.082,0.088
		c0.042,0.143,0.138,0.263,0.287,0.36c0.149,0.097,0.354,0.146,0.616,0.146c0.295,0,0.517-0.05,0.666-0.148
		c0.149-0.099,0.225-0.235,0.225-0.408c0-0.114-0.038-0.208-0.113-0.284c-0.076-0.076-0.191-0.142-0.345-0.199
		c-0.153-0.057-0.382-0.125-0.686-0.205c-0.497-0.118-0.861-0.274-1.093-0.467C17.69,1.91,17.574,1.632,17.574,1.27
		c0-0.244,0.067-0.462,0.202-0.654s0.328-0.342,0.578-0.452C18.605,0.055,18.896,0,19.229,0c0.35,0,0.651,0.061,0.906,0.183
		s0.449,0.274,0.581,0.458c0.133,0.183,0.203,0.365,0.212,0.546c0,0.034-0.013,0.064-0.038,0.091
		c-0.025,0.028-0.057,0.041-0.095,0.041h-0.6c-0.093,0-0.156-0.038-0.189-0.113c-0.021-0.135-0.104-0.248-0.247-0.338
		c-0.143-0.09-0.319-0.136-0.53-0.136c-0.231,0-0.414,0.044-0.546,0.133c-0.133,0.088-0.199,0.217-0.199,0.385
		c0,0.114,0.033,0.208,0.101,0.284c0.067,0.076,0.173,0.142,0.316,0.199c0.143,0.057,0.352,0.121,0.625,0.192
		c0.375,0.084,0.673,0.179,0.894,0.285c0.222,0.105,0.385,0.238,0.49,0.398c0.104,0.16,0.157,0.364,0.157,0.613
		c0,0.273-0.074,0.51-0.224,0.71s-0.36,0.353-0.632,0.458c-0.271,0.105-0.587,0.158-0.944,0.158
		C18.888,4.548,18.564,4.491,18.294,4.377z"/>
	<path d="M22.336,4.185c-0.193-0.2-0.29-0.494-0.29-0.881V1.876h-0.499c-0.042,0-0.078-0.015-0.107-0.044
		c-0.029-0.029-0.045-0.065-0.045-0.107V1.352c0-0.042,0.016-0.078,0.045-0.107C21.469,1.215,21.505,1.2,21.547,1.2h0.499V0.151
		c0-0.046,0.015-0.083,0.044-0.11S22.156,0,22.198,0h0.524c0.046,0,0.083,0.014,0.11,0.041s0.041,0.064,0.041,0.11V1.2h0.79
		c0.042,0,0.077,0.015,0.107,0.044c0.029,0.03,0.044,0.065,0.044,0.107v0.373c0,0.042-0.015,0.078-0.044,0.107
		c-0.03,0.03-0.065,0.044-0.107,0.044h-0.79v1.358c0,0.181,0.032,0.318,0.095,0.411c0.063,0.093,0.166,0.139,0.31,0.139h0.442
		c0.046,0,0.083,0.014,0.11,0.041s0.041,0.064,0.041,0.11v0.398c0,0.042-0.014,0.078-0.041,0.107
		c-0.027,0.03-0.064,0.044-0.11,0.044h-0.518C22.819,4.485,22.531,4.385,22.336,4.185z"/>
	<path d="M24.744,4.169c-0.27-0.252-0.415-0.602-0.436-1.048l-0.007-0.278l0.007-0.278c0.021-0.442,0.168-0.791,0.441-1.045
		c0.274-0.255,0.655-0.382,1.144-0.382c0.484,0,0.863,0.127,1.138,0.382c0.273,0.255,0.421,0.603,0.441,1.045
		c0.005,0.051,0.007,0.143,0.007,0.278s-0.002,0.228-0.007,0.278c-0.021,0.446-0.166,0.796-0.436,1.048
		c-0.27,0.253-0.65,0.379-1.144,0.379C25.396,4.548,25.013,4.422,24.744,4.169z M26.408,3.702c0.12-0.139,0.185-0.343,0.193-0.613
		c0.004-0.042,0.006-0.124,0.006-0.247c0-0.122-0.002-0.204-0.006-0.246c-0.009-0.27-0.074-0.475-0.196-0.616
		c-0.122-0.141-0.293-0.211-0.512-0.211c-0.223,0-0.396,0.071-0.518,0.211c-0.122,0.141-0.188,0.347-0.196,0.616l-0.006,0.246
		l0.006,0.247c0.009,0.27,0.074,0.474,0.196,0.613C25.498,3.84,25.67,3.91,25.893,3.91C26.117,3.91,26.288,3.84,26.408,3.702z"/>
	<path d="M28.224,4.44c-0.029-0.029-0.044-0.065-0.044-0.107V1.358c0-0.046,0.015-0.084,0.044-0.114
		C28.253,1.215,28.29,1.2,28.332,1.2h0.519c0.046,0,0.084,0.015,0.113,0.044c0.029,0.03,0.044,0.067,0.044,0.114v0.259
		c0.211-0.278,0.514-0.417,0.91-0.417h0.265c0.047,0,0.084,0.014,0.111,0.041s0.041,0.064,0.041,0.11v0.461
		c0,0.042-0.014,0.078-0.041,0.107c-0.027,0.03-0.064,0.044-0.111,0.044h-0.499c-0.197,0-0.354,0.057-0.467,0.17
		c-0.114,0.114-0.171,0.27-0.171,0.468v1.731c0,0.042-0.015,0.078-0.044,0.107c-0.029,0.03-0.065,0.044-0.107,0.044h-0.562
		C28.29,4.485,28.253,4.47,28.224,4.44z"/>
	<path d="M31.083,4.144c-0.275-0.269-0.422-0.652-0.438-1.149l-0.007-0.158c0-0.526,0.138-0.941,0.414-1.244
		c0.275-0.303,0.658-0.455,1.146-0.455c0.501,0,0.888,0.152,1.159,0.455s0.407,0.708,0.407,1.213v0.132
		c0,0.042-0.015,0.078-0.044,0.107c-0.029,0.03-0.067,0.044-0.114,0.044h-2.097v0.05c0.008,0.236,0.072,0.431,0.192,0.584
		s0.285,0.23,0.496,0.23c0.24,0,0.436-0.097,0.587-0.291c0.038-0.046,0.067-0.075,0.089-0.085c0.021-0.011,0.057-0.016,0.107-0.016
		h0.556c0.038,0,0.07,0.011,0.099,0.032c0.027,0.021,0.041,0.05,0.041,0.088c0,0.101-0.061,0.22-0.181,0.357
		s-0.291,0.256-0.515,0.357s-0.482,0.151-0.777,0.151C31.732,4.548,31.359,4.413,31.083,4.144z M32.892,2.552V2.539
		c0-0.248-0.062-0.447-0.186-0.597c-0.125-0.149-0.294-0.225-0.509-0.225s-0.384,0.075-0.506,0.225s-0.183,0.349-0.183,0.597v0.013
		H32.892z"/>
</g>
</svg>
